<svg xmlns="http://www.w3.org/2000/svg" xmlns:xlink="http://www.w3.org/1999/xlink" width="500" zoomAndPan="magnify" viewBox="0 0 375 374.999991" height="500" preserveAspectRatio="xMidYMid meet" version="1.0"><defs><g/><clipPath id="6f2a218f1d"><path d="M 100.539062 101.058594 L 274.460938 101.058594 L 274.460938 274.976562 L 100.539062 274.976562 Z M 100.539062 101.058594 " clip-rule="nonzero"/></clipPath><clipPath id="1118c5057b"><path d="M 187.5 101.058594 C 139.472656 101.058594 100.539062 139.988281 100.539062 188.015625 C 100.539062 236.042969 139.472656 274.976562 187.5 274.976562 C 235.527344 274.976562 274.460938 236.042969 274.460938 188.015625 C 274.460938 139.988281 235.527344 101.058594 187.5 101.058594 Z M 187.5 101.058594 " clip-rule="nonzero"/></clipPath><clipPath id="8a2c8a199c"><path d="M 144.34375 167 L 220 167 L 220 234.488281 L 144.34375 234.488281 Z M 144.34375 167 " clip-rule="nonzero"/></clipPath><clipPath id="02cee837cb"><path d="M 182 142 L 230.59375 142 L 230.59375 190 L 182 190 Z M 182 142 " clip-rule="nonzero"/></clipPath></defs><g clip-path="url(#6f2a218f1d)"><g clip-path="url(#1118c5057b)"><path fill="#ffe3b5" d="M 100.539062 101.058594 L 274.460938 101.058594 L 274.460938 274.976562 L 100.539062 274.976562 Z M 100.539062 101.058594 " fill-opacity="1" fill-rule="nonzero"/></g></g><g clip-path="url(#8a2c8a199c)"><path fill="#171810" d="M 181.695312 234.339844 C 180.472656 234.335938 179.25 234.277344 178.03125 234.15625 C 176.8125 234.035156 175.601562 233.851562 174.398438 233.613281 C 173.199219 233.375 172.011719 233.074219 170.839844 232.71875 C 169.667969 232.363281 168.515625 231.949219 167.382812 231.480469 C 166.25 231.011719 165.144531 230.484375 164.066406 229.90625 C 162.984375 229.328125 161.9375 228.699219 160.917969 228.019531 C 159.898438 227.335938 158.917969 226.609375 157.96875 225.832031 C 157.023438 225.050781 156.117188 224.230469 155.25 223.363281 C 154.386719 222.496094 153.5625 221.589844 152.789062 220.640625 C 152.011719 219.695312 151.28125 218.710938 150.601562 217.691406 C 149.921875 216.671875 149.292969 215.625 148.714844 214.542969 C 148.136719 213.460938 147.613281 212.355469 147.148438 211.222656 C 146.679688 210.09375 146.265625 208.941406 145.910156 207.765625 C 145.554688 206.59375 145.257812 205.40625 145.019531 204.207031 C 144.78125 203.003906 144.601562 201.792969 144.480469 200.574219 C 144.359375 199.355469 144.300781 198.132812 144.300781 196.90625 C 144.4375 192.757812 145.242188 188.746094 146.71875 184.867188 C 149.894531 176.539062 155.773438 170.859375 163.722656 168.460938 C 173.589844 165.472656 184.246094 168.601562 190.25 176.234375 L 189.132812 177.113281 C 183.488281 169.9375 173.445312 167.003906 164.132812 169.824219 C 156.511719 172.125 151.101562 177.355469 148.046875 185.375 C 146.640625 189.089844 145.867188 192.9375 145.71875 196.90625 C 145.722656 198.136719 145.785156 199.359375 145.910156 200.578125 C 146.035156 201.800781 146.222656 203.011719 146.46875 204.214844 C 146.71875 205.414062 147.027344 206.601562 147.398438 207.773438 C 147.769531 208.941406 148.199219 210.089844 148.6875 211.214844 C 149.171875 212.34375 149.71875 213.441406 150.316406 214.511719 C 150.917969 215.582031 151.570312 216.621094 152.277344 217.625 C 152.984375 218.628906 153.738281 219.59375 154.542969 220.519531 C 155.347656 221.445312 156.199219 222.328125 157.09375 223.167969 C 157.988281 224.007812 158.921875 224.800781 159.898438 225.542969 C 160.875 226.289062 161.886719 226.980469 162.933594 227.621094 C 163.980469 228.261719 165.058594 228.847656 166.164062 229.378906 C 167.269531 229.910156 168.402344 230.382812 169.554688 230.796875 C 170.710938 231.210938 171.882812 231.566406 173.074219 231.859375 C 174.265625 232.15625 175.46875 232.390625 176.6875 232.5625 C 177.902344 232.734375 179.121094 232.84375 180.347656 232.890625 C 181.574219 232.9375 182.800781 232.921875 184.023438 232.84375 C 185.136719 232.769531 186.242188 232.640625 187.339844 232.464844 C 188.441406 232.289062 189.53125 232.0625 190.609375 231.785156 C 191.6875 231.507812 192.75 231.179688 193.800781 230.804688 C 194.847656 230.425781 195.875 230.003906 196.886719 229.53125 C 197.894531 229.0625 198.878906 228.546875 199.84375 227.984375 C 200.804688 227.421875 201.738281 226.816406 202.644531 226.167969 C 203.546875 225.519531 204.421875 224.832031 205.265625 224.101562 C 206.105469 223.375 206.914062 222.605469 207.683594 221.804688 C 208.453125 221 209.1875 220.164062 209.882812 219.289062 C 210.574219 218.417969 211.226562 217.519531 211.835938 216.585938 C 212.449219 215.65625 213.015625 214.699219 213.535156 213.714844 C 214.058594 212.730469 214.535156 211.722656 214.964844 210.695312 C 215.390625 209.667969 215.773438 208.621094 216.105469 207.558594 C 216.4375 206.496094 216.71875 205.421875 216.953125 204.332031 C 217.1875 203.242188 217.367188 202.144531 217.5 201.039062 C 217.632812 199.933594 217.710938 198.824219 217.742188 197.710938 C 218.066406 190.765625 216.683594 185.804688 213.632812 182.945312 C 212.621094 181.984375 211.414062 181.5 210.019531 181.5 C 209.671875 181.503906 209.328125 181.535156 208.988281 181.597656 C 208.648438 181.660156 208.316406 181.753906 207.992188 181.878906 C 207.671875 182 207.363281 182.152344 207.066406 182.332031 C 206.769531 182.515625 206.496094 182.71875 206.238281 182.949219 C 205.980469 183.179688 205.746094 183.433594 205.53125 183.707031 C 205.320312 183.980469 205.136719 184.273438 204.976562 184.578125 C 204.820312 184.886719 204.691406 185.207031 204.589844 185.539062 C 204.488281 185.867188 204.421875 186.207031 204.382812 186.550781 C 204.292969 187.332031 204.054688 188.070312 203.664062 188.753906 C 203.273438 189.441406 202.765625 190.023438 202.136719 190.5 C 201.574219 190.9375 200.949219 191.242188 200.257812 191.417969 C 199.570312 191.59375 198.871094 191.625 198.167969 191.511719 C 197.394531 191.371094 196.675781 191.089844 196.011719 190.667969 C 195.347656 190.246094 194.789062 189.71875 194.332031 189.078125 C 193.601562 188.058594 193.15625 186.925781 193 185.679688 C 192.945312 185.328125 192.882812 184.996094 192.804688 184.65625 L 194.183594 184.328125 C 194.277344 184.707031 194.34375 185.074219 194.402344 185.460938 C 194.523438 186.472656 194.878906 187.390625 195.464844 188.222656 C 196.183594 189.253906 197.160156 189.882812 198.398438 190.113281 C 199.464844 190.28125 200.425781 190.035156 201.28125 189.371094 C 201.753906 189.007812 202.136719 188.570312 202.429688 188.054688 C 202.726562 187.535156 202.90625 186.980469 202.972656 186.390625 C 203.019531 185.960938 203.105469 185.539062 203.230469 185.125 C 203.355469 184.710938 203.519531 184.3125 203.714844 183.925781 C 203.914062 183.542969 204.144531 183.179688 204.410156 182.835938 C 204.675781 182.496094 204.96875 182.179688 205.289062 181.890625 C 205.613281 181.601562 205.957031 181.34375 206.328125 181.121094 C 206.695312 180.894531 207.082031 180.703125 207.488281 180.550781 C 207.890625 180.394531 208.304688 180.277344 208.730469 180.199219 C 209.15625 180.121094 209.585938 180.082031 210.019531 180.082031 C 210.871094 180.082031 211.695312 180.238281 212.484375 180.554688 C 213.277344 180.871094 213.980469 181.320312 214.601562 181.910156 C 217.972656 185.066406 219.507812 190.398438 219.160156 197.757812 C 219.128906 198.914062 219.046875 200.066406 218.910156 201.214844 C 218.773438 202.367188 218.582031 203.507812 218.339844 204.636719 C 218.097656 205.769531 217.804688 206.886719 217.457031 207.992188 C 217.113281 209.097656 216.714844 210.183594 216.269531 211.253906 C 215.824219 212.320312 215.328125 213.367188 214.785156 214.386719 C 214.242188 215.410156 213.65625 216.40625 213.019531 217.375 C 212.386719 218.339844 211.707031 219.277344 210.988281 220.183594 C 210.265625 221.089844 209.503906 221.957031 208.703125 222.792969 C 207.902344 223.628906 207.0625 224.425781 206.1875 225.183594 C 205.3125 225.941406 204.402344 226.65625 203.460938 227.328125 C 202.519531 228.003906 201.550781 228.632812 200.550781 229.214844 C 199.550781 229.800781 198.527344 230.335938 197.476562 230.824219 C 196.429688 231.316406 195.359375 231.753906 194.269531 232.144531 C 193.179688 232.535156 192.074219 232.875 190.953125 233.164062 C 189.832031 233.453125 188.703125 233.6875 187.558594 233.871094 C 186.414062 234.054688 185.265625 234.1875 184.113281 234.261719 C 183.304688 234.3125 182.5 234.339844 181.695312 234.339844 Z M 181.695312 234.339844 " fill-opacity="1" fill-rule="nonzero"/></g><path fill="#171810" d="M 157.394531 194.929688 C 157.050781 194.929688 156.707031 194.898438 156.371094 194.828125 C 156.035156 194.761719 155.707031 194.664062 155.386719 194.53125 C 155.070312 194.398438 154.765625 194.238281 154.480469 194.046875 C 154.195312 193.855469 153.929688 193.636719 153.6875 193.394531 C 153.441406 193.152344 153.226562 192.886719 153.035156 192.601562 C 152.84375 192.3125 152.683594 192.011719 152.550781 191.695312 C 152.417969 191.375 152.320312 191.046875 152.25 190.710938 C 152.183594 190.371094 152.152344 190.03125 152.152344 189.6875 C 152.152344 189.34375 152.183594 189.003906 152.253906 188.664062 C 152.320312 188.328125 152.417969 188 152.550781 187.679688 C 152.683594 187.363281 152.84375 187.0625 153.035156 186.773438 C 153.226562 186.488281 153.445312 186.222656 153.6875 185.980469 C 153.929688 185.738281 154.195312 185.519531 154.480469 185.328125 C 154.769531 185.136719 155.070312 184.976562 155.386719 184.84375 C 155.707031 184.710938 156.035156 184.613281 156.371094 184.546875 C 156.710938 184.480469 157.050781 184.445312 157.394531 184.445312 C 157.738281 184.445312 158.078125 184.480469 158.417969 184.546875 C 158.753906 184.613281 159.082031 184.710938 159.402344 184.84375 C 159.71875 184.976562 160.019531 185.136719 160.308594 185.328125 C 160.59375 185.519531 160.859375 185.738281 161.101562 185.980469 C 161.34375 186.226562 161.5625 186.488281 161.753906 186.777344 C 161.945312 187.0625 162.105469 187.363281 162.238281 187.683594 C 162.371094 188 162.46875 188.328125 162.535156 188.664062 C 162.605469 189.003906 162.636719 189.34375 162.636719 189.6875 C 162.636719 190.03125 162.601562 190.375 162.535156 190.710938 C 162.46875 191.046875 162.367188 191.375 162.234375 191.695312 C 162.105469 192.011719 161.941406 192.3125 161.75 192.601562 C 161.558594 192.886719 161.34375 193.152344 161.097656 193.394531 C 160.855469 193.636719 160.589844 193.855469 160.304688 194.046875 C 160.019531 194.238281 159.71875 194.398438 159.398438 194.53125 C 159.082031 194.660156 158.753906 194.761719 158.417969 194.828125 C 158.078125 194.898438 157.738281 194.929688 157.394531 194.929688 Z M 157.394531 185.867188 C 156.886719 185.867188 156.398438 185.960938 155.929688 186.15625 C 155.460938 186.351562 155.050781 186.625 154.691406 186.984375 C 154.332031 187.34375 154.054688 187.757812 153.863281 188.226562 C 153.667969 188.695312 153.570312 189.183594 153.570312 189.6875 C 153.570312 190.195312 153.667969 190.683594 153.863281 191.152344 C 154.054688 191.621094 154.332031 192.035156 154.691406 192.390625 C 155.050781 192.75 155.460938 193.027344 155.929688 193.222656 C 156.398438 193.414062 156.886719 193.511719 157.394531 193.511719 C 157.902344 193.511719 158.390625 193.414062 158.855469 193.222656 C 159.324219 193.027344 159.738281 192.75 160.097656 192.390625 C 160.457031 192.035156 160.730469 191.621094 160.925781 191.152344 C 161.121094 190.683594 161.21875 190.195312 161.21875 189.6875 C 161.21875 189.183594 161.121094 188.695312 160.925781 188.226562 C 160.730469 187.757812 160.453125 187.34375 160.097656 186.988281 C 159.738281 186.628906 159.324219 186.351562 158.855469 186.15625 C 158.386719 185.964844 157.902344 185.867188 157.394531 185.867188 Z M 157.394531 185.867188 " fill-opacity="1" fill-rule="nonzero"/><path fill="#171810" d="M 159.480469 211.90625 C 159.132812 211.90625 158.792969 211.875 158.457031 211.808594 C 158.117188 211.738281 157.789062 211.640625 157.472656 211.507812 C 157.15625 211.375 156.851562 211.214844 156.566406 211.023438 C 156.28125 210.832031 156.015625 210.617188 155.773438 210.371094 C 155.527344 210.128906 155.3125 209.863281 155.121094 209.578125 C 154.929688 209.292969 154.765625 208.988281 154.636719 208.671875 C 154.503906 208.351562 154.402344 208.023438 154.335938 207.6875 C 154.269531 207.351562 154.234375 207.007812 154.234375 206.664062 C 154.234375 206.320312 154.269531 205.980469 154.335938 205.640625 C 154.402344 205.304688 154.503906 204.976562 154.636719 204.660156 C 154.765625 204.339844 154.929688 204.039062 155.121094 203.753906 C 155.3125 203.464844 155.527344 203.199219 155.773438 202.957031 C 156.015625 202.714844 156.28125 202.496094 156.566406 202.304688 C 156.851562 202.113281 157.15625 201.953125 157.472656 201.820312 C 157.789062 201.6875 158.117188 201.589844 158.457031 201.523438 C 158.792969 201.457031 159.132812 201.421875 159.480469 201.421875 C 159.824219 201.421875 160.164062 201.457031 160.5 201.523438 C 160.839844 201.589844 161.167969 201.6875 161.484375 201.820312 C 161.804688 201.953125 162.105469 202.113281 162.390625 202.304688 C 162.679688 202.496094 162.941406 202.714844 163.1875 202.957031 C 163.429688 203.199219 163.648438 203.464844 163.839844 203.753906 C 164.03125 204.039062 164.191406 204.339844 164.324219 204.660156 C 164.453125 204.976562 164.554688 205.304688 164.621094 205.640625 C 164.6875 205.980469 164.722656 206.320312 164.722656 206.664062 C 164.722656 207.007812 164.6875 207.351562 164.621094 207.6875 C 164.554688 208.023438 164.453125 208.351562 164.320312 208.671875 C 164.1875 208.988281 164.027344 209.289062 163.835938 209.578125 C 163.644531 209.863281 163.429688 210.128906 163.183594 210.371094 C 162.941406 210.613281 162.675781 210.832031 162.390625 211.023438 C 162.105469 211.214844 161.800781 211.375 161.484375 211.507812 C 161.167969 211.640625 160.839844 211.738281 160.5 211.804688 C 160.164062 211.875 159.824219 211.90625 159.480469 211.90625 Z M 159.480469 202.84375 C 158.972656 202.84375 158.484375 202.9375 158.015625 203.132812 C 157.546875 203.328125 157.132812 203.605469 156.773438 203.960938 C 156.417969 204.320312 156.140625 204.734375 155.945312 205.203125 C 155.753906 205.671875 155.65625 206.160156 155.65625 206.664062 C 155.65625 207.171875 155.753906 207.660156 155.945312 208.128906 C 156.140625 208.597656 156.417969 209.011719 156.777344 209.371094 C 157.132812 209.726562 157.546875 210.003906 158.015625 210.199219 C 158.484375 210.390625 158.972656 210.488281 159.480469 210.488281 C 159.988281 210.488281 160.472656 210.390625 160.941406 210.199219 C 161.410156 210.003906 161.824219 209.726562 162.183594 209.367188 C 162.542969 209.011719 162.816406 208.597656 163.011719 208.128906 C 163.207031 207.660156 163.300781 207.171875 163.300781 206.664062 C 163.300781 206.15625 163.203125 205.671875 163.011719 205.203125 C 162.816406 204.734375 162.539062 204.320312 162.179688 203.964844 C 161.824219 203.605469 161.410156 203.328125 160.941406 203.132812 C 160.472656 202.941406 159.984375 202.84375 159.480469 202.84375 Z M 159.480469 202.84375 " fill-opacity="1" fill-rule="nonzero"/><path fill="#171810" d="M 173.320312 224.695312 C 172.976562 224.695312 172.636719 224.660156 172.296875 224.59375 C 171.960938 224.527344 171.632812 224.425781 171.316406 224.292969 C 170.996094 224.164062 170.695312 224 170.410156 223.808594 C 170.121094 223.617188 169.859375 223.402344 169.613281 223.160156 C 169.371094 222.914062 169.152344 222.648438 168.960938 222.363281 C 168.769531 222.078125 168.609375 221.777344 168.476562 221.457031 C 168.347656 221.140625 168.246094 220.8125 168.179688 220.472656 C 168.113281 220.136719 168.078125 219.796875 168.078125 219.449219 C 168.078125 219.105469 168.113281 218.765625 168.179688 218.429688 C 168.246094 218.089844 168.347656 217.761719 168.476562 217.445312 C 168.609375 217.125 168.769531 216.824219 168.960938 216.539062 C 169.152344 216.253906 169.371094 215.988281 169.613281 215.742188 C 169.859375 215.5 170.121094 215.28125 170.410156 215.089844 C 170.695312 214.902344 170.996094 214.738281 171.316406 214.605469 C 171.632812 214.476562 171.960938 214.375 172.296875 214.308594 C 172.636719 214.242188 172.976562 214.207031 173.320312 214.207031 C 173.664062 214.207031 174.007812 214.242188 174.34375 214.308594 C 174.683594 214.375 175.007812 214.476562 175.328125 214.605469 C 175.644531 214.738281 175.949219 214.902344 176.234375 215.089844 C 176.519531 215.28125 176.785156 215.5 177.027344 215.742188 C 177.273438 215.988281 177.488281 216.253906 177.679688 216.539062 C 177.871094 216.824219 178.035156 217.125 178.164062 217.445312 C 178.296875 217.761719 178.394531 218.089844 178.464844 218.429688 C 178.53125 218.765625 178.5625 219.105469 178.5625 219.449219 C 178.5625 219.796875 178.53125 220.136719 178.460938 220.472656 C 178.394531 220.8125 178.296875 221.136719 178.164062 221.457031 C 178.03125 221.773438 177.871094 222.078125 177.679688 222.363281 C 177.488281 222.648438 177.269531 222.914062 177.027344 223.15625 C 176.785156 223.398438 176.519531 223.617188 176.234375 223.808594 C 175.945312 224 175.644531 224.160156 175.328125 224.292969 C 175.007812 224.425781 174.679688 224.523438 174.34375 224.59375 C 174.007812 224.660156 173.664062 224.695312 173.320312 224.695312 Z M 173.320312 215.628906 C 172.8125 215.628906 172.328125 215.726562 171.859375 215.917969 C 171.390625 216.113281 170.976562 216.390625 170.617188 216.746094 C 170.257812 217.105469 169.984375 217.519531 169.789062 217.988281 C 169.59375 218.457031 169.5 218.945312 169.5 219.449219 C 169.5 219.957031 169.59375 220.445312 169.789062 220.914062 C 169.984375 221.382812 170.257812 221.796875 170.617188 222.15625 C 170.976562 222.511719 171.390625 222.789062 171.859375 222.984375 C 172.328125 223.175781 172.8125 223.273438 173.320312 223.273438 C 173.828125 223.273438 174.316406 223.175781 174.785156 222.984375 C 175.253906 222.789062 175.667969 222.511719 176.023438 222.15625 C 176.382812 221.796875 176.660156 221.382812 176.855469 220.914062 C 177.046875 220.445312 177.144531 219.957031 177.144531 219.449219 C 177.144531 218.945312 177.046875 218.457031 176.851562 217.988281 C 176.660156 217.519531 176.382812 217.105469 176.023438 216.75 C 175.664062 216.390625 175.253906 216.113281 174.785156 215.917969 C 174.316406 215.726562 173.828125 215.628906 173.320312 215.628906 Z M 173.320312 215.628906 " fill-opacity="1" fill-rule="nonzero"/><path fill="#171810" d="M 191.941406 224.695312 C 191.597656 224.695312 191.257812 224.660156 190.917969 224.59375 C 190.582031 224.527344 190.253906 224.425781 189.9375 224.296875 C 189.617188 224.164062 189.316406 224.003906 189.027344 223.8125 C 188.742188 223.621094 188.476562 223.402344 188.234375 223.160156 C 187.992188 222.914062 187.773438 222.652344 187.582031 222.363281 C 187.390625 222.078125 187.230469 221.777344 187.097656 221.457031 C 186.964844 221.140625 186.867188 220.8125 186.800781 220.472656 C 186.730469 220.136719 186.699219 219.796875 186.699219 219.453125 C 186.699219 219.109375 186.730469 218.765625 186.800781 218.429688 C 186.867188 218.089844 186.964844 217.761719 187.097656 217.445312 C 187.230469 217.128906 187.390625 216.824219 187.582031 216.539062 C 187.773438 216.253906 187.988281 215.988281 188.234375 215.746094 C 188.476562 215.5 188.742188 215.285156 189.027344 215.09375 C 189.3125 214.902344 189.617188 214.738281 189.933594 214.609375 C 190.253906 214.476562 190.582031 214.375 190.917969 214.308594 C 191.253906 214.242188 191.597656 214.207031 191.941406 214.207031 C 192.285156 214.207031 192.625 214.242188 192.964844 214.308594 C 193.300781 214.375 193.628906 214.476562 193.949219 214.605469 C 194.265625 214.738281 194.566406 214.902344 194.855469 215.089844 C 195.140625 215.28125 195.40625 215.5 195.648438 215.742188 C 195.890625 215.988281 196.109375 216.253906 196.300781 216.539062 C 196.492188 216.824219 196.652344 217.125 196.785156 217.445312 C 196.917969 217.761719 197.015625 218.089844 197.082031 218.429688 C 197.152344 218.765625 197.183594 219.105469 197.183594 219.449219 C 197.183594 219.796875 197.148438 220.136719 197.082031 220.472656 C 197.015625 220.8125 196.914062 221.136719 196.785156 221.457031 C 196.652344 221.773438 196.488281 222.074219 196.296875 222.363281 C 196.109375 222.648438 195.890625 222.914062 195.648438 223.15625 C 195.402344 223.398438 195.140625 223.617188 194.851562 223.808594 C 194.566406 224 194.265625 224.160156 193.945312 224.292969 C 193.628906 224.425781 193.300781 224.523438 192.964844 224.59375 C 192.628906 224.660156 192.285156 224.695312 191.941406 224.695312 Z M 191.941406 215.628906 C 191.433594 215.628906 190.949219 215.722656 190.480469 215.917969 C 190.011719 216.113281 189.597656 216.386719 189.238281 216.746094 C 188.878906 217.105469 188.601562 217.519531 188.410156 217.988281 C 188.214844 218.457031 188.117188 218.945312 188.117188 219.449219 C 188.117188 219.957031 188.214844 220.445312 188.410156 220.914062 C 188.601562 221.382812 188.878906 221.796875 189.238281 222.152344 C 189.597656 222.511719 190.007812 222.789062 190.476562 222.984375 C 190.945312 223.175781 191.433594 223.273438 191.941406 223.273438 C 192.449219 223.273438 192.9375 223.175781 193.402344 222.984375 C 193.871094 222.789062 194.285156 222.511719 194.644531 222.15625 C 195.003906 221.796875 195.28125 221.382812 195.472656 220.914062 C 195.667969 220.445312 195.765625 219.957031 195.765625 219.449219 C 195.765625 218.945312 195.667969 218.457031 195.472656 217.988281 C 195.277344 217.519531 195.003906 217.109375 194.644531 216.75 C 194.285156 216.390625 193.871094 216.113281 193.40625 215.921875 C 192.9375 215.726562 192.449219 215.628906 191.941406 215.628906 Z M 191.941406 215.628906 " fill-opacity="1" fill-rule="nonzero"/><path fill="#171810" d="M 204.214844 211.996094 C 203.871094 211.996094 203.53125 211.960938 203.191406 211.894531 C 202.855469 211.828125 202.527344 211.730469 202.210938 211.597656 C 201.890625 211.464844 201.589844 211.304688 201.300781 211.113281 C 201.015625 210.921875 200.75 210.707031 200.507812 210.460938 C 200.265625 210.21875 200.046875 209.953125 199.855469 209.667969 C 199.664062 209.382812 199.503906 209.078125 199.371094 208.761719 C 199.238281 208.445312 199.136719 208.117188 199.070312 207.777344 C 199.003906 207.441406 198.96875 207.101562 198.96875 206.753906 C 198.96875 206.410156 199.003906 206.070312 199.070312 205.734375 C 199.136719 205.394531 199.234375 205.066406 199.367188 204.75 C 199.5 204.429688 199.660156 204.128906 199.851562 203.84375 C 200.042969 203.554688 200.261719 203.292969 200.503906 203.046875 C 200.746094 202.804688 201.011719 202.585938 201.296875 202.394531 C 201.582031 202.203125 201.886719 202.042969 202.203125 201.910156 C 202.523438 201.777344 202.847656 201.679688 203.1875 201.609375 C 203.523438 201.542969 203.867188 201.511719 204.210938 201.511719 C 204.554688 201.507812 204.894531 201.542969 205.234375 201.609375 C 205.570312 201.675781 205.898438 201.777344 206.214844 201.90625 C 206.535156 202.039062 206.835938 202.199219 207.125 202.390625 C 207.410156 202.582031 207.675781 202.800781 207.917969 203.042969 C 208.160156 203.285156 208.378906 203.550781 208.570312 203.835938 C 208.761719 204.125 208.921875 204.425781 209.054688 204.742188 C 209.1875 205.0625 209.285156 205.390625 209.355469 205.726562 C 209.421875 206.066406 209.457031 206.40625 209.457031 206.75 C 209.457031 207.09375 209.421875 207.433594 209.355469 207.773438 C 209.289062 208.109375 209.1875 208.4375 209.054688 208.753906 C 208.925781 209.074219 208.761719 209.375 208.570312 209.660156 C 208.378906 209.949219 208.164062 210.210938 207.921875 210.457031 C 207.675781 210.699219 207.414062 210.917969 207.125 211.109375 C 206.839844 211.300781 206.539062 211.460938 206.222656 211.59375 C 205.902344 211.726562 205.574219 211.824219 205.238281 211.894531 C 204.902344 211.960938 204.558594 211.996094 204.214844 211.996094 Z M 204.214844 202.929688 C 203.707031 202.929688 203.21875 203.027344 202.75 203.21875 C 202.28125 203.414062 201.871094 203.691406 201.511719 204.050781 C 201.152344 204.40625 200.875 204.820312 200.679688 205.289062 C 200.488281 205.757812 200.390625 206.246094 200.390625 206.753906 C 200.390625 207.261719 200.488281 207.75 200.679688 208.214844 C 200.875 208.683594 201.152344 209.097656 201.507812 209.457031 C 201.867188 209.816406 202.28125 210.09375 202.75 210.285156 C 203.21875 210.480469 203.707031 210.578125 204.214844 210.578125 C 204.722656 210.578125 205.210938 210.480469 205.679688 210.285156 C 206.144531 210.089844 206.558594 209.8125 206.917969 209.457031 C 207.277344 209.097656 207.550781 208.683594 207.746094 208.214844 C 207.941406 207.746094 208.035156 207.257812 208.035156 206.75 C 208.035156 206.242188 207.9375 205.757812 207.742188 205.289062 C 207.550781 204.820312 207.273438 204.410156 206.914062 204.050781 C 206.558594 203.691406 206.144531 203.417969 205.675781 203.222656 C 205.207031 203.027344 204.722656 202.929688 204.214844 202.929688 Z M 204.214844 202.929688 " fill-opacity="1" fill-rule="nonzero"/><path fill="#171810" d="M 175.023438 201.769531 C 172.578125 201.742188 170.277344 201.15625 168.117188 200.011719 C 168.011719 199.953125 167.929688 199.871094 167.867188 199.773438 C 167.804688 199.671875 167.769531 199.5625 167.761719 199.445312 C 167.753906 199.324219 167.773438 199.210938 167.820312 199.105469 C 167.871094 198.996094 167.941406 198.90625 168.035156 198.832031 C 168.070312 198.804688 171.523438 196.09375 172.136719 192.566406 C 172.433594 190.761719 173.042969 189.066406 173.96875 187.484375 C 176.347656 183.460938 179.757812 182.183594 183.578125 183.863281 C 183.65625 183.902344 183.730469 183.949219 183.792969 184.011719 L 188.375 188.59375 C 188.578125 188.800781 188.636719 189.039062 188.546875 189.316406 C 186.539062 195.480469 183.429688 199.40625 179.304688 200.992188 C 177.925781 201.519531 176.5 201.777344 175.023438 201.769531 Z M 169.742188 199.214844 C 171.171875 199.855469 172.667969 200.214844 174.230469 200.292969 C 175.796875 200.367188 177.320312 200.15625 178.804688 199.660156 C 182.414062 198.265625 185.1875 194.773438 187.058594 189.285156 L 182.878906 185.109375 C 179.769531 183.785156 177.183594 184.824219 175.183594 188.199219 C 174.351562 189.632812 173.800781 191.167969 173.53125 192.804688 C 172.941406 195.339844 171.679688 197.476562 169.742188 199.21875 Z M 169.742188 199.214844 " fill-opacity="1" fill-rule="nonzero"/><g clip-path="url(#02cee837cb)"><path fill="#171810" d="M 187.867188 189.816406 C 187.671875 189.816406 187.503906 189.746094 187.367188 189.609375 L 182.777344 185.015625 C 182.648438 184.890625 182.578125 184.734375 182.570312 184.550781 C 182.5625 184.371094 182.613281 184.207031 182.730469 184.066406 L 189.273438 176.0625 C 194.867188 169.234375 201.058594 163 207.847656 157.359375 L 225.339844 142.828125 C 225.628906 142.574219 225.949219 142.382812 226.308594 142.25 C 226.667969 142.117188 227.039062 142.054688 227.421875 142.0625 C 227.808594 142.070312 228.175781 142.148438 228.53125 142.292969 C 228.882812 142.4375 229.199219 142.644531 229.476562 142.90625 C 229.742188 143.183594 229.945312 143.5 230.089844 143.855469 C 230.238281 144.207031 230.3125 144.578125 230.320312 144.960938 C 230.328125 145.34375 230.265625 145.714844 230.132812 146.074219 C 230 146.433594 229.808594 146.757812 229.554688 147.042969 L 215.023438 164.542969 C 209.382812 171.332031 203.144531 177.515625 196.3125 183.101562 L 188.320312 189.652344 C 188.1875 189.761719 188.039062 189.816406 187.867188 189.816406 Z M 184.234375 184.46875 L 187.914062 188.148438 L 195.414062 182.003906 C 202.175781 176.476562 208.351562 170.351562 213.933594 163.632812 L 228.460938 146.136719 C 228.601562 145.984375 228.710938 145.8125 228.785156 145.621094 C 228.863281 145.429688 228.898438 145.234375 228.902344 145.027344 C 228.902344 144.820312 228.867188 144.621094 228.792969 144.429688 C 228.722656 144.238281 228.617188 144.0625 228.476562 143.910156 C 228.324219 143.773438 228.152344 143.667969 227.960938 143.59375 C 227.769531 143.519531 227.570312 143.484375 227.363281 143.484375 C 227.15625 143.484375 226.957031 143.523438 226.765625 143.597656 C 226.574219 143.675781 226.402344 143.78125 226.253906 143.921875 L 208.75 158.453125 C 202.03125 164.035156 195.90625 170.203125 190.375 176.964844 Z M 208.296875 157.90625 Z M 208.296875 157.90625 " fill-opacity="1" fill-rule="nonzero"/></g><g fill="#171810" fill-opacity="1"><g transform="translate(106.326007, 176.41359)"><g/></g></g><g fill="#171810" fill-opacity="1"><g transform="translate(105.800721, 183.109025)"><g><path d="M 8.253906 5.792969 L 8.171875 0.253906 C 8.167969 0.0742188 8.289062 -0.0078125 8.472656 0.0546875 C 8.632812 0.113281 8.773438 0.292969 8.773438 0.453125 C 8.773438 0.472656 8.773438 0.472656 8.773438 0.472656 L 8.695312 5.953125 C 8.695312 6.09375 8.597656 6.15625 8.476562 6.09375 C 8.355469 6.054688 8.253906 5.914062 8.253906 5.792969 Z M 8.253906 5.792969 "/></g></g></g><g fill="#171810" fill-opacity="1"><g transform="translate(105.836749, 189.945212)"><g/></g></g><g fill="#171810" fill-opacity="1"><g transform="translate(106.423734, 196.635517)"><g><path d="M 9.097656 4.351562 L 8.101562 -1.097656 C 8.070312 -1.277344 8.175781 -1.375 8.363281 -1.34375 C 8.53125 -1.3125 8.699219 -1.15625 8.726562 -1 C 8.730469 -0.980469 8.730469 -0.980469 8.730469 -0.980469 L 9.558594 4.4375 C 9.582031 4.578125 9.496094 4.652344 9.367188 4.613281 C 9.242188 4.59375 9.117188 4.472656 9.097656 4.351562 Z M 9.097656 4.351562 "/></g></g></g><g fill="#171810" fill-opacity="1"><g transform="translate(107.587556, 203.371985)"><g/></g></g><g fill="#171810" fill-opacity="1"><g transform="translate(109.270711, 209.873674)"><g><path d="M 9.691406 2.792969 L 7.808594 -2.417969 C 7.75 -2.589844 7.835938 -2.707031 8.027344 -2.707031 C 8.199219 -2.703125 8.390625 -2.578125 8.441406 -2.425781 C 8.449219 -2.40625 8.449219 -2.40625 8.449219 -2.40625 L 10.160156 2.800781 C 10.207031 2.933594 10.132812 3.019531 10 3.003906 C 9.871094 3.003906 9.730469 2.90625 9.691406 2.792969 Z M 9.691406 2.792969 "/></g></g></g><g fill="#171810" fill-opacity="1"><g transform="translate(111.530413, 216.325685)"><g/></g></g><g fill="#171810" fill-opacity="1"><g transform="translate(114.263563, 222.460406)"><g><path d="M 10.019531 1.152344 L 7.300781 -3.675781 C 7.214844 -3.832031 7.28125 -3.960938 7.46875 -3.996094 C 7.640625 -4.019531 7.847656 -3.925781 7.925781 -3.785156 C 7.9375 -3.769531 7.9375 -3.769531 7.9375 -3.769531 L 10.484375 1.082031 C 10.550781 1.207031 10.492188 1.308594 10.355469 1.3125 C 10.230469 1.335938 10.078125 1.257812 10.019531 1.152344 Z M 10.019531 1.152344 "/></g></g></g><g fill="#171810" fill-opacity="1"><g transform="translate(117.557176, 228.45096)"><g/></g></g><g fill="#171810" fill-opacity="1"><g transform="translate(121.265357, 234.050451)"><g><path d="M 10.074219 -0.515625 L 6.59375 -4.828125 C 6.484375 -4.972656 6.527344 -5.109375 6.707031 -5.171875 C 6.871094 -5.226562 7.09375 -5.167969 7.191406 -5.042969 C 7.203125 -5.027344 7.203125 -5.027344 7.203125 -5.027344 L 10.519531 -0.660156 C 10.605469 -0.550781 10.5625 -0.441406 10.433594 -0.414062 C 10.3125 -0.371094 10.148438 -0.421875 10.074219 -0.515625 Z M 10.074219 -0.515625 "/></g></g></g><g fill="#171810" fill-opacity="1"><g transform="translate(125.502531, 239.415252)"><g/></g></g><g fill="#171810" fill-opacity="1"><g transform="translate(130.279421, 245.283917)"><g><path d="M 12.707031 8.824219 C 11.335938 8.242188 18.5 4.320312 21.453125 1.648438 C 24.375 -1.050781 21.605469 -2.085938 17.492188 -0.539062 C 15.1875 0.28125 12.492188 1.816406 11.597656 2 C 12.042969 0.976562 18.890625 -2.855469 21.691406 -5.796875 C 23.726562 -7.984375 22.15625 -9.371094 16.917969 -7.667969 C 11.1875 -5.8125 3.417969 -1.191406 1.109375 -0.269531 C 2.253906 -1.617188 11.195312 -7.617188 12.773438 -7.910156 C 12.910156 -7.855469 13.082031 -7.851562 13.199219 -7.941406 C 13.515625 -8.128906 13.152344 -8.578125 12.445312 -8.308594 C 9.929688 -7.339844 2.328125 -2.515625 0.601562 -0.628906 C -0.121094 0.160156 0.179688 0.761719 1.902344 -0.0195312 C 4.816406 -1.34375 12.089844 -5.605469 17.15625 -7.285156 C 21.046875 -8.601562 23.320312 -8.113281 21.214844 -6.03125 C 18.851562 -3.667969 12.128906 0.335938 11.164062 1.746094 C 10.867188 2.199219 11.113281 2.539062 11.972656 2.304688 C 12.9375 2.027344 15.585938 0.683594 17.796875 -0.109375 C 22.097656 -1.640625 23.1875 -0.515625 21.015625 1.390625 C 18.382812 3.679688 9.9375 8.089844 12.203125 9.222656 C 12.601562 9.425781 13.117188 9.011719 12.707031 8.824219 Z M 12.707031 8.824219 "/></g></g></g><g fill="#171810" fill-opacity="1"><g transform="translate(147.843753, 257.670958)"><g><path d="M 11.386719 -4.34375 C 10.203125 -3.894531 8.433594 -3.199219 6.691406 -3.023438 C 5.015625 -2.839844 3.796875 -3.367188 4.804688 -4.6875 C 5.265625 -5.265625 5.863281 -5.753906 6.289062 -6.261719 C 6.878906 -6.957031 6.433594 -7.285156 5.441406 -6.8125 C 4.808594 -6.472656 4.199219 -6.054688 3.441406 -5.601562 C 2.109375 -4.847656 0.882812 -4.488281 1.492188 -5.503906 C 2.121094 -6.5625 4.515625 -8.429688 4.738281 -7.246094 C 4.804688 -6.921875 5.53125 -7.082031 5.464844 -7.402344 C 5.097656 -9.304688 1.796875 -7.035156 0.855469 -5.664062 C 0.0742188 -4.433594 1.292969 -3.683594 3.785156 -5.296875 C 4.410156 -5.707031 5.238281 -6.304688 5.675781 -6.5625 C 6.222656 -6.898438 6.222656 -6.671875 5.929688 -6.390625 C 5.527344 -6.03125 4.804688 -5.46875 4.28125 -4.855469 C 2.847656 -3.207031 4.371094 -2.261719 6.6875 -2.554688 C 8.257812 -2.746094 10.101562 -3.453125 11.523438 -4.121094 C 11.726562 -4.21875 11.601562 -4.417969 11.386719 -4.34375 Z M 11.386719 -4.34375 "/></g></g></g><g fill="#171810" fill-opacity="1"><g transform="translate(156.108436, 261.701925)"><g><path d="M 12.019531 -5.269531 C 10.515625 -4.667969 9.078125 -4.019531 7.917969 -3.871094 C 5.507812 -3.542969 6.132812 -5.152344 6.488281 -6.050781 C 7.3125 -8.101562 5.625 -8.390625 3.921875 -7.285156 C 2.636719 -6.457031 1.371094 -5.089844 0.855469 -4.890625 C 0.785156 -5.488281 2.6875 -7.523438 3.464844 -8.230469 C 3.78125 -8.523438 3.289062 -8.824219 2.96875 -8.511719 C 1.886719 -7.546875 0.597656 -5.914062 0.367188 -5.015625 C 0.253906 -4.503906 0.609375 -4.25 1.355469 -4.734375 C 2.046875 -5.195312 3.148438 -6.28125 4.203125 -6.929688 C 5.453125 -7.707031 6.390625 -7.65625 5.773438 -6.066406 C 5.421875 -5.125 4.789062 -2.941406 7.882812 -3.457031 C 9.257812 -3.679688 10.820312 -4.453125 12.132812 -5.039062 C 12.355469 -5.128906 12.242188 -5.359375 12.019531 -5.269531 Z M 12.019531 -5.269531 "/></g></g></g><g fill="#171810" fill-opacity="1"><g transform="translate(165.989033, 265.017529)"><g><path d="M 8.96875 -7.117188 C 6.992188 -6.109375 5.507812 -5.558594 3.558594 -5.859375 C 3.8125 -6.171875 4.011719 -6.496094 4.191406 -6.828125 C 5.75 -10.15625 1.242188 -9.621094 0.660156 -7.324219 C 0.375 -6.976562 0.144531 -6.597656 -0.00390625 -6.21875 C -0.710938 -4.300781 1.347656 -3.667969 3.109375 -5.34375 C 5.246094 -5.042969 6.9375 -5.605469 9.105469 -6.902344 C 9.300781 -7.023438 9.179688 -7.214844 8.96875 -7.117188 Z M 3.707031 -6.875 C 3.554688 -6.5625 3.355469 -6.234375 3.101562 -5.941406 C 2.242188 -6.140625 1.230469 -6.492188 1.355469 -7.308594 C 1.636719 -7.636719 2.089844 -8.007812 2.527344 -8.113281 C 2.8125 -8.191406 2.976562 -8.460938 2.804688 -8.605469 C 3.644531 -8.765625 4.261719 -8.128906 3.707031 -6.875 Z M 0.769531 -6.453125 C 1.074219 -5.890625 1.828125 -5.59375 2.597656 -5.441406 C 1.222656 -4.292969 0.0742188 -5.027344 0.769531 -6.453125 Z M 0.769531 -6.453125 "/></g></g></g><g fill="#171810" fill-opacity="1"><g transform="translate(173.396244, 266.636892)"><g><path d="M 6.246094 -8.023438 C 4.925781 -6.46875 2.304688 -4.738281 0.621094 -5.019531 C 1.046875 -6.296875 1.28125 -8.617188 2.011719 -8.898438 C 2.59375 -9.136719 2.390625 -9.574219 2.03125 -9.460938 C 0.59375 -9.0625 0.480469 -6.726562 0.0742188 -5.179688 C -0.421875 -5.375 -1.242188 -5.898438 -1.207031 -6.417969 C -1.207031 -6.703125 -1.695312 -6.691406 -1.863281 -6.371094 C -3.398438 -3.570312 -0.613281 -2.21875 0.4375 -4.601562 C 2.453125 -4.371094 5.191406 -6.207031 6.539062 -7.941406 C 6.664062 -8.105469 6.414062 -8.203125 6.246094 -8.023438 Z M -1.78125 -5.792969 C -1.472656 -5.261719 -0.78125 -4.859375 -0.0742188 -4.695312 C -0.710938 -2.941406 -2.363281 -4.011719 -1.78125 -5.792969 Z M -1.78125 -5.792969 "/></g></g></g><g fill="#171810" fill-opacity="1"><g transform="translate(178.947619, 267.432314)"><g/></g></g><g fill="#171810" fill-opacity="1"><g transform="translate(186.449188, 268.425639)"><g><path d="M 15.296875 -2.296875 C 13.898438 -1.777344 16.425781 -9.546875 16.738281 -13.519531 C 17.011719 -17.484375 14.289062 -16.339844 12.359375 -12.394531 C 11.242188 -10.210938 10.335938 -7.246094 9.8125 -6.503906 C 9.433594 -7.550781 11.789062 -15.039062 11.808594 -19.097656 C 11.785156 -22.085938 9.691406 -22.015625 7.050781 -17.1875 C 4.152344 -11.902344 1.667969 -3.210938 0.621094 -0.957031 C 0.53125 -2.722656 2.917969 -13.222656 3.867188 -14.515625 C 4.003906 -14.570312 4.132812 -14.6875 4.15625 -14.832031 C 4.257812 -15.183594 3.6875 -15.265625 3.355469 -14.582031 C 2.1875 -12.152344 -0.03125 -3.429688 0.0078125 -0.867188 C 0.0234375 0.199219 0.652344 0.433594 1.371094 -1.320312 C 2.582031 -4.28125 4.949219 -12.371094 7.488281 -17.070312 C 9.414062 -20.695312 11.402344 -21.902344 11.300781 -18.941406 C 11.199219 -15.597656 9.054688 -8.074219 9.320312 -6.386719 C 9.417969 -5.851562 9.828125 -5.777344 10.292969 -6.535156 C 10.804688 -7.398438 11.8125 -10.195312 12.875 -12.289062 C 14.957031 -16.351562 16.519531 -16.28125 16.246094 -13.402344 C 15.898438 -9.933594 12.78125 -0.929688 15.207031 -1.660156 C 15.636719 -1.785156 15.726562 -2.441406 15.296875 -2.296875 Z M 15.296875 -2.296875 "/></g></g></g><g fill="#171810" fill-opacity="1"><g transform="translate(207.726615, 265.390029)"><g><path d="M 5.304688 -10.96875 C 4.753906 -9.832031 3.941406 -8.109375 2.796875 -6.789062 C 1.699219 -5.507812 0.453125 -5.058594 0.28125 -6.707031 C 0.21875 -7.441406 0.320312 -8.210938 0.28125 -8.871094 C 0.230469 -9.777344 -0.316406 -9.714844 -0.710938 -8.6875 C -0.941406 -8.007812 -1.097656 -7.289062 -1.339844 -6.4375 C -1.789062 -4.972656 -2.4375 -3.867188 -2.691406 -5.03125 C -2.957031 -6.230469 -2.496094 -9.230469 -1.523438 -8.523438 C -1.253906 -8.332031 -0.832031 -8.945312 -1.101562 -9.136719 C -2.671875 -10.269531 -3.519531 -6.351562 -3.261719 -4.707031 C -2.988281 -3.277344 -1.585938 -3.566406 -0.882812 -6.449219 C -0.707031 -7.175781 -0.515625 -8.183594 -0.371094 -8.667969 C -0.203125 -9.285156 -0.0507812 -9.125 -0.0703125 -8.71875 C -0.113281 -8.179688 -0.253906 -7.277344 -0.214844 -6.46875 C -0.128906 -4.289062 1.632812 -4.644531 3.113281 -6.445312 C 4.121094 -7.664062 4.980469 -9.441406 5.558594 -10.902344 C 5.640625 -11.117188 5.410156 -11.171875 5.304688 -10.96875 Z M -1.628906 -11.851562 C -1.734375 -11.585938 -1.886719 -11.265625 -1.933594 -11 C -1.980469 -10.816406 -1.777344 -10.773438 -1.667969 -10.957031 C -1.652344 -10.980469 -1.625 -11.097656 -1.175781 -11.613281 C -0.792969 -12.066406 -1.367188 -12.4375 -1.628906 -11.851562 Z M -1.628906 -11.851562 "/></g></g></g><g fill="#171810" fill-opacity="1"><g transform="translate(216.356708, 262.644437)"><g><path d="M 3.175781 -11.007812 C 2.234375 -9.839844 1.15625 -8.527344 -0.117188 -6.347656 C -0.1875 -7.125 -0.363281 -8.511719 -0.632812 -9.140625 C -0.90625 -9.675781 -1.25 -9.507812 -1.417969 -8.933594 C -1.691406 -8.140625 -1.832031 -6.378906 -2.128906 -5.289062 C -2.34375 -4.457031 -2.617188 -4.078125 -2.921875 -4.6875 C -3.550781 -5.90625 -3.429688 -9.753906 -2.121094 -9.355469 C -1.800781 -9.273438 -1.519531 -9.9375 -1.847656 -10.039062 C -3.832031 -10.652344 -4.132812 -5.785156 -3.417969 -4.214844 C -2.960938 -3.296875 -2.046875 -3.511719 -1.625 -5.285156 C -1.34375 -6.5625 -1.300781 -8.199219 -1.121094 -8.90625 C -1.074219 -9.101562 -1.050781 -9.246094 -0.917969 -8.886719 C -0.644531 -8.195312 -0.519531 -6.523438 -0.488281 -5.6875 C -6.769531 5.820312 -1.457031 10.6875 -0.203125 3.40625 C 0.203125 0.984375 0.117188 -3.457031 -0.0625 -5.714844 C 0.925781 -7.535156 2.078125 -9.183594 3.34375 -10.816406 C 3.5 -11.015625 3.320312 -11.179688 3.175781 -11.007812 Z M -0.753906 3.445312 C -1.816406 9.488281 -5.230469 4.617188 -0.441406 -4.964844 C -0.359375 -2.882812 -0.371094 1.226562 -0.753906 3.445312 Z M -0.753906 3.445312 "/></g></g></g><g fill="#171810" fill-opacity="1"><g transform="translate(223.496068, 259.520232)"><g><path d="M 0.617188 -10.421875 C 0.285156 -8.996094 -0.0898438 -7.183594 -0.785156 -5.925781 C -1.527344 -4.621094 -2.695312 -3.957031 -3.339844 -5.296875 C -3.726562 -6.066406 -3.757812 -6.9375 -3.648438 -7.972656 C -3.578125 -8.441406 -4.132812 -8.375 -4.183594 -7.914062 C -4.304688 -6.898438 -4.175781 -5.757812 -3.777344 -4.878906 C -2.925781 -3.105469 -1.371094 -3.816406 -0.410156 -5.648438 C 0.328125 -7.039062 0.628906 -8.90625 0.898438 -10.414062 C 0.9375 -10.636719 0.683594 -10.640625 0.617188 -10.421875 Z M -3.675781 -9.480469 C -3.675781 -9.480469 -3.675781 -9.480469 -3.660156 -9.488281 C -3.675781 -9.480469 -3.675781 -9.480469 -3.675781 -9.480469 Z M -3.640625 -9.542969 C -3.632812 -9.570312 -3.398438 -9.8125 -3.53125 -10.105469 C -3.625 -10.28125 -3.832031 -10.285156 -4 -10.128906 C -4.226562 -9.871094 -4.234375 -9.546875 -4.199219 -9.226562 C -4.167969 -9.035156 -4.136719 -8.847656 -4.050781 -8.691406 C -3.976562 -8.546875 -3.792969 -8.667969 -3.796875 -8.847656 C -3.773438 -9.019531 -3.769531 -9.273438 -3.640625 -9.542969 Z M -3.640625 -9.542969 "/></g></g></g><g fill="#171810" fill-opacity="1"><g transform="translate(228.762942, 256.702104)"><g><path d="M 0.1875 -10.664062 C -0.230469 -8.808594 -0.660156 -6.257812 -1.925781 -4.886719 C -2.773438 -3.96875 -3.335938 -3.996094 -3.753906 -4.464844 C -4.4375 -5.246094 -4.730469 -7.363281 -3.957031 -8.804688 C -3.796875 -9.117188 -3.511719 -9.488281 -3.417969 -9.191406 C -3.382812 -9.097656 -3.367188 -8.960938 -3.371094 -8.816406 C -3.367188 -8.320312 -2.800781 -8.515625 -2.839844 -8.988281 C -2.851562 -9.195312 -2.878906 -9.390625 -2.953125 -9.582031 C -3.210938 -10.179688 -3.820312 -10.054688 -4.328125 -9.089844 C -5.234375 -7.332031 -4.910156 -4.945312 -4.105469 -3.933594 C -3.457031 -3.0625 -2.535156 -3.40625 -1.65625 -4.417969 C -0.34375 -5.910156 0.078125 -8.363281 0.449219 -10.664062 C 0.46875 -10.894531 0.238281 -10.886719 0.1875 -10.664062 Z M 0.1875 -10.664062 "/></g></g></g><g fill="#171810" fill-opacity="1"><g transform="translate(234.29733, 253.224865)"><g><path d="M 1.109375 -12.136719 C 0.996094 -10.875 0.839844 -8.980469 0.230469 -7.339844 C -0.34375 -5.753906 -1.351562 -4.894531 -2.09375 -6.375 C -2.410156 -7.046875 -2.585938 -7.796875 -2.855469 -8.402344 C -3.21875 -9.238281 -3.710938 -8.984375 -3.722656 -7.882812 C -3.699219 -7.164062 -3.589844 -6.4375 -3.515625 -5.554688 C -3.421875 -4.027344 -3.640625 -2.765625 -4.285156 -3.761719 C -4.957031 -4.792969 -5.582031 -7.761719 -4.421875 -7.441406 C -4.101562 -7.359375 -3.925781 -8.082031 -4.242188 -8.164062 C -6.109375 -8.671875 -5.527344 -4.707031 -4.707031 -3.257812 C -3.949219 -2.019531 -2.738281 -2.78125 -3.09375 -5.730469 C -3.183594 -6.472656 -3.355469 -7.480469 -3.394531 -7.984375 C -3.457031 -8.621094 -3.253906 -8.527344 -3.128906 -8.136719 C -2.980469 -7.617188 -2.796875 -6.722656 -2.472656 -5.980469 C -1.628906 -3.96875 -0.105469 -4.921875 0.648438 -7.128906 C 1.167969 -8.621094 1.34375 -10.589844 1.371094 -12.160156 C 1.371094 -12.386719 1.140625 -12.359375 1.109375 -12.136719 Z M 1.109375 -12.136719 "/></g></g></g><g fill="#171810" fill-opacity="1"><g transform="translate(241.297696, 247.669098)"><g><path d="M -2.324219 -9.898438 C -1.941406 -7.898438 -2.242188 -4.769531 -3.515625 -3.636719 C -4.242188 -4.769531 -5.902344 -6.410156 -5.660156 -7.152344 C -5.484375 -7.757812 -5.949219 -7.875 -6.089844 -7.523438 C -6.679688 -6.152344 -4.929688 -4.597656 -3.984375 -3.3125 C -4.449219 -3.046875 -5.367188 -2.738281 -5.753906 -3.09375 C -5.972656 -3.273438 -6.273438 -2.886719 -6.128906 -2.554688 C -4.914062 0.402344 -2.109375 -0.914062 -3.304688 -3.230469 C -1.859375 -4.65625 -1.570312 -7.941406 -2.074219 -10.074219 C -2.125 -10.277344 -2.355469 -10.140625 -2.324219 -9.898438 Z M -5.628906 -2.25 C -5.019531 -2.15625 -4.269531 -2.441406 -3.699219 -2.890625 C -2.738281 -1.292969 -4.605469 -0.679688 -5.628906 -2.25 Z M -5.628906 -2.25 "/></g></g></g><g fill="#171810" fill-opacity="1"><g transform="translate(245.403171, 243.848719)"><g/></g></g><g fill="#171810" fill-opacity="1"><g transform="translate(249.947332, 238.903476)"><g><path d="M -2.921875 -9.652344 L -6.273438 -5.242188 C -6.382812 -5.097656 -6.527344 -5.109375 -6.632812 -5.269531 C -6.722656 -5.414062 -6.722656 -5.644531 -6.625 -5.769531 C -6.609375 -5.785156 -6.609375 -5.785156 -6.609375 -5.785156 L -3.171875 -10.050781 C -3.082031 -10.164062 -2.96875 -10.148438 -2.910156 -10.027344 C -2.839844 -9.921875 -2.847656 -9.746094 -2.921875 -9.652344 Z M -2.921875 -9.652344 "/></g></g></g><g fill="#171810" fill-opacity="1"><g transform="translate(254.136568, 233.501155)"><g/></g></g><g fill="#171810" fill-opacity="1"><g transform="translate(257.802207, 227.873707)"><g><path d="M -4.476562 -9.039062 L -7.050781 -4.132812 C -7.136719 -3.976562 -7.28125 -3.960938 -7.414062 -4.101562 C -7.523438 -4.230469 -7.5625 -4.457031 -7.484375 -4.597656 C -7.476562 -4.613281 -7.476562 -4.613281 -7.476562 -4.613281 L -4.785156 -9.390625 C -4.71875 -9.515625 -4.601562 -9.519531 -4.523438 -9.410156 C -4.4375 -9.316406 -4.417969 -9.144531 -4.476562 -9.039062 Z M -4.476562 -9.039062 "/></g></g></g><g fill="#171810" fill-opacity="1"><g transform="translate(261.042339, 221.854078)"><g/></g></g><g fill="#171810" fill-opacity="1"><g transform="translate(263.728898, 215.698814)"><g><path d="M -5.90625 -8.175781 L -7.636719 -2.914062 C -7.695312 -2.742188 -7.835938 -2.707031 -7.988281 -2.820312 C -8.121094 -2.929688 -8.195312 -3.148438 -8.140625 -3.300781 C -8.132812 -3.316406 -8.132812 -3.316406 -8.132812 -3.316406 L -6.269531 -8.472656 C -6.222656 -8.605469 -6.109375 -8.628906 -6.015625 -8.53125 C -5.914062 -8.457031 -5.867188 -8.289062 -5.90625 -8.175781 Z M -5.90625 -8.175781 "/></g></g></g><g fill="#171810" fill-opacity="1"><g transform="translate(265.931062, 209.226951)"><g/></g></g><g fill="#171810" fill-opacity="1"><g transform="translate(267.564893, 202.712701)"><g><path d="M -7.171875 -7.089844 L -8.011719 -1.613281 C -8.042969 -1.433594 -8.175781 -1.375 -8.34375 -1.464844 C -8.492188 -1.550781 -8.601562 -1.75 -8.574219 -1.910156 C -8.570312 -1.929688 -8.570312 -1.929688 -8.570312 -1.929688 L -7.582031 -7.320312 C -7.558594 -7.460938 -7.449219 -7.503906 -7.339844 -7.421875 C -7.230469 -7.363281 -7.152344 -7.207031 -7.171875 -7.089844 Z M -7.171875 -7.089844 "/></g></g></g><g fill="#171810" fill-opacity="1"><g transform="translate(268.668675, 195.966113)"><g/></g></g><g fill="#171810" fill-opacity="1"><g transform="translate(269.204946, 189.271551)"><g><path d="M -8.246094 -5.808594 L -8.167969 -0.269531 C -8.167969 -0.0859375 -8.289062 -0.0078125 -8.472656 -0.0664062 C -8.632812 -0.128906 -8.773438 -0.308594 -8.773438 -0.46875 C -8.773438 -0.488281 -8.773438 -0.488281 -8.773438 -0.488281 L -8.6875 -5.96875 C -8.6875 -6.109375 -8.585938 -6.167969 -8.464844 -6.109375 C -8.34375 -6.070312 -8.246094 -5.929688 -8.246094 -5.808594 Z M -8.246094 -5.808594 "/></g></g></g><g fill="#171810" fill-opacity="1"><g transform="translate(269.180082, 182.435312)"><g/></g></g><g fill="#171810" fill-opacity="1"><g transform="translate(117.892743, 178.723978)"><g><path d="M -0.4375 0.03125 C -0.40625 -0.175781 -0.429688 -0.351562 -0.515625 -0.5 C -0.597656 -0.644531 -0.707031 -0.765625 -0.84375 -0.859375 C -0.988281 -0.960938 -1.210938 -1.082031 -1.515625 -1.21875 L -1.84375 -1.390625 L -8.59375 -4.890625 L -8.546875 -5.203125 L -1.015625 -7.078125 C -0.773438 -7.148438 -0.519531 -7.203125 -0.25 -7.234375 C 0.0195312 -7.265625 0.238281 -7.265625 0.40625 -7.234375 L 0.46875 -8.125 L 1.03125 -8.046875 L 0.65625 -5.15625 L 0.234375 -5.203125 C 0.285156 -5.703125 0.117188 -5.972656 -0.265625 -6.015625 C -0.421875 -6.035156 -0.625 -6.019531 -0.875 -5.96875 L -2.109375 -5.6875 L -2.46875 -2.40625 C -2.132812 -2.226562 -1.703125 -2.019531 -1.171875 -1.78125 C -0.910156 -1.664062 -0.632812 -1.523438 -0.34375 -1.359375 L -0.265625 -2.359375 L 0.296875 -2.28125 L -0.015625 0.078125 Z M -2.609375 -5.578125 L -5.125 -4.984375 L -6.75 -4.609375 L -6.75 -4.59375 L -5.390625 -3.859375 L -3.5625 -2.96875 L -2.984375 -2.671875 Z M -2.609375 -5.578125 "/></g></g></g><g fill="#171810" fill-opacity="1"><g transform="translate(121.006399, 162.489231)"><g><path d="M -0.140625 -0.8125 C -0.046875 -1.082031 -0.0351562 -1.300781 -0.109375 -1.46875 C -0.179688 -1.632812 -0.289062 -1.753906 -0.4375 -1.828125 C -0.59375 -1.910156 -0.878906 -2.03125 -1.296875 -2.1875 L -6.40625 -4.15625 C -6.738281 -4.28125 -7.019531 -4.398438 -7.25 -4.515625 L -7.515625 -3.640625 L -8.046875 -3.84375 C -7.753906 -4.664062 -7.523438 -5.289062 -7.359375 -5.71875 C -7.210938 -6.09375 -7.097656 -6.378906 -7.015625 -6.578125 C -6.566406 -7.679688 -6.0625 -8.421875 -5.5 -8.796875 C -4.945312 -9.171875 -4.332031 -9.226562 -3.65625 -8.96875 C -3.09375 -8.769531 -2.660156 -8.421875 -2.359375 -7.921875 C -2.054688 -7.421875 -1.984375 -6.726562 -2.140625 -5.84375 C -1.972656 -5.9375 -1.796875 -6.015625 -1.609375 -6.078125 C -1.429688 -6.140625 -1.15625 -6.203125 -0.78125 -6.265625 L 0.78125 -6.578125 C 1.125 -6.640625 1.390625 -6.703125 1.578125 -6.765625 C 1.773438 -6.835938 1.945312 -6.9375 2.09375 -7.0625 C 2.25 -7.1875 2.375 -7.367188 2.46875 -7.609375 L 2.859375 -7.453125 L 2.28125 -5.953125 C 2.019531 -5.804688 1.765625 -5.695312 1.515625 -5.625 C 1.265625 -5.550781 0.953125 -5.476562 0.578125 -5.40625 L -1 -5.09375 L -1.3125 -5.046875 C -1.570312 -5.003906 -1.789062 -4.957031 -1.96875 -4.90625 C -2.144531 -4.863281 -2.300781 -4.804688 -2.4375 -4.734375 C -2.457031 -4.660156 -2.5 -4.546875 -2.5625 -4.390625 C -2.644531 -4.179688 -2.703125 -4.03125 -2.734375 -3.9375 L -0.453125 -3.0625 C -0.0234375 -2.894531 0.28125 -2.757812 0.46875 -2.65625 L 0.75 -3.53125 L 1.28125 -3.328125 L 0.25 -0.65625 Z M -3 -4.609375 C -2.375 -6.222656 -2.691406 -7.273438 -3.953125 -7.765625 C -4.554688 -7.992188 -5.078125 -7.992188 -5.515625 -7.765625 C -5.953125 -7.535156 -6.304688 -7.0625 -6.578125 -6.34375 C -6.691406 -6.0625 -6.710938 -5.835938 -6.640625 -5.671875 C -6.578125 -5.515625 -6.46875 -5.398438 -6.3125 -5.328125 C -6.164062 -5.265625 -5.890625 -5.15625 -5.484375 -5 L -3.203125 -4.125 C -3.109375 -4.34375 -3.039062 -4.503906 -3 -4.609375 Z M -3 -4.609375 "/></g></g></g><g fill="#171810" fill-opacity="1"><g transform="translate(127.894134, 147.434672)"><g><path d="M 1.171875 -2.40625 C 1.367188 -2.707031 1.414062 -2.957031 1.3125 -3.15625 C 1.21875 -3.351562 1.007812 -3.5625 0.6875 -3.78125 L 0.375 -4.015625 L -4.890625 -7.703125 L -5.625 -6.609375 C -5.925781 -6.179688 -6 -5.773438 -5.84375 -5.390625 C -5.6875 -5.003906 -5.300781 -4.59375 -4.6875 -4.15625 L -4.953125 -3.78125 L -7.09375 -5.375 L -2.859375 -11.453125 L -0.625 -9.984375 L -0.90625 -9.578125 C -1.332031 -9.890625 -1.703125 -10.09375 -2.015625 -10.1875 C -2.335938 -10.28125 -2.628906 -10.28125 -2.890625 -10.1875 C -3.148438 -10.09375 -3.40625 -9.867188 -3.65625 -9.515625 L -4.28125 -8.625 L 1.390625 -4.640625 C 1.765625 -4.390625 2.03125 -4.191406 2.1875 -4.046875 L 2.75 -4.9375 L 3.21875 -4.609375 L 1.515625 -2.171875 Z M 1.171875 -2.40625 "/></g></g></g><g fill="#171810" fill-opacity="1"><g transform="translate(138.283884, 134.348298)"><g><path d="M 0.25 -0.78125 C 0.46875 -0.976562 0.582031 -1.164062 0.59375 -1.34375 C 0.613281 -1.53125 0.570312 -1.691406 0.46875 -1.828125 C 0.363281 -1.972656 0.164062 -2.207031 -0.125 -2.53125 L -3.75 -6.65625 C -3.976562 -6.914062 -4.175781 -7.148438 -4.34375 -7.359375 L -4.96875 -6.71875 L -5.34375 -7.140625 L -0.765625 -11.171875 L 0.75 -9.5625 L 0.4375 -9.28125 C -0.0195312 -9.789062 -0.441406 -10.039062 -0.828125 -10.03125 C -1.222656 -10.019531 -1.625 -9.832031 -2.03125 -9.46875 L -2.828125 -8.734375 C -3.046875 -8.523438 -3.171875 -8.335938 -3.203125 -8.171875 C -3.234375 -8.003906 -3.195312 -7.835938 -3.09375 -7.671875 C -3 -7.503906 -2.816406 -7.269531 -2.546875 -6.96875 L -1.203125 -5.4375 L 0.59375 -6.984375 L -0.203125 -7.765625 L 0.21875 -8.125 L 1.984375 -6.125 L 1.671875 -5.859375 C 1.460938 -6.097656 1.273438 -6.25 1.109375 -6.3125 C 0.941406 -6.382812 0.78125 -6.390625 0.625 -6.328125 C 0.46875 -6.265625 0.285156 -6.140625 0.078125 -5.953125 L -0.203125 -5.703125 L -0.875 -5.0625 L 1.0625 -2.875 C 1.34375 -2.539062 1.546875 -2.285156 1.671875 -2.109375 L 3.453125 -3.734375 C 3.898438 -4.128906 4.144531 -4.535156 4.1875 -4.953125 C 4.226562 -5.378906 4.007812 -5.863281 3.53125 -6.40625 L 3.859375 -6.703125 L 5.4375 -4.78125 L 0.53125 -0.46875 Z M 0.25 -0.78125 "/></g></g></g><g fill="#171810" fill-opacity="1"><g transform="translate(151.478859, 124.262525)"><g/></g></g><g fill="#171810" fill-opacity="1"><g transform="translate(162.173245, 118.839703)"><g><path d="M 4.1875 -2.703125 C 3.175781 -3.910156 2.382812 -4.863281 1.8125 -5.5625 C 1.25 -6.257812 0.671875 -6.992188 0.078125 -7.765625 L 0.21875 -7.234375 C 0.84375 -4.828125 1.289062 -3.117188 1.5625 -2.109375 C 1.59375 -1.984375 1.617188 -1.894531 1.640625 -1.84375 C 1.722656 -1.5625 1.78125 -1.300781 1.8125 -1.0625 L 2.71875 -1.375 L 2.875 -0.828125 L 0.546875 -0.15625 L 0.4375 -0.5625 C 0.757812 -0.664062 0.945312 -0.820312 1 -1.03125 C 1.050781 -1.25 1.03125 -1.546875 0.9375 -1.921875 L -0.65625 -8.53125 L -1.53125 -8.234375 L -1.6875 -8.765625 L 0.1875 -9.3125 L 2.9375 -5.953125 C 3.957031 -4.691406 4.734375 -3.75 5.265625 -3.125 L 5.28125 -3.125 C 5.3125 -3.40625 5.375 -3.988281 5.46875 -4.875 C 5.539062 -5.75 5.644531 -6.710938 5.78125 -7.765625 C 5.925781 -8.992188 6.046875 -10.078125 6.140625 -11.015625 L 7.953125 -11.53125 L 8.078125 -11.125 C 7.765625 -11.050781 7.5625 -10.910156 7.46875 -10.703125 C 7.382812 -10.492188 7.398438 -10.191406 7.515625 -9.796875 L 7.609375 -9.5625 L 9.515625 -4.09375 C 9.578125 -3.90625 9.65625 -3.65625 9.75 -3.34375 L 10.640625 -3.640625 L 10.796875 -3.09375 L 8.0625 -2.3125 L 7.953125 -2.71875 C 8.253906 -2.820312 8.4375 -2.976562 8.5 -3.1875 C 8.570312 -3.394531 8.550781 -3.679688 8.4375 -4.046875 C 8.394531 -4.203125 8.359375 -4.320312 8.328125 -4.40625 L 6.515625 -9.515625 C 6.503906 -9.460938 6.492188 -9.398438 6.484375 -9.328125 C 6.484375 -9.253906 6.484375 -9.171875 6.484375 -9.078125 L 5.671875 -1.5 L 5.296875 -1.390625 Z M 4.1875 -2.703125 "/></g></g></g><g fill="#171810" fill-opacity="1"><g transform="translate(181.841825, 114.621503)"><g><path d="M 0.703125 -0.4375 C 0.992188 -0.445312 1.203125 -0.515625 1.328125 -0.640625 C 1.453125 -0.765625 1.519531 -0.910156 1.53125 -1.078125 C 1.550781 -1.253906 1.554688 -1.5625 1.546875 -2 L 1.46875 -7.484375 C 1.46875 -7.835938 1.472656 -8.144531 1.484375 -8.40625 L 0.578125 -8.34375 L 0.578125 -8.90625 L 6.6875 -8.984375 L 6.78125 -6.765625 L 6.359375 -6.765625 C 6.347656 -7.453125 6.1875 -7.921875 5.875 -8.171875 C 5.570312 -8.421875 5.148438 -8.535156 4.609375 -8.515625 L 3.515625 -8.46875 C 3.210938 -8.457031 2.992188 -8.398438 2.859375 -8.296875 C 2.722656 -8.191406 2.640625 -8.039062 2.609375 -7.84375 C 2.585938 -7.644531 2.582031 -7.34375 2.59375 -6.9375 L 2.609375 -4.90625 L 4.984375 -4.9375 L 4.890625 -6.03125 L 5.4375 -6.03125 L 5.484375 -3.375 L 5.078125 -3.375 C 5.066406 -3.6875 5.019531 -3.921875 4.9375 -4.078125 C 4.863281 -4.242188 4.75 -4.351562 4.59375 -4.40625 C 4.4375 -4.457031 4.21875 -4.484375 3.9375 -4.484375 L 3.546875 -4.453125 L 2.625 -4.40625 L 2.671875 -1.484375 C 2.671875 -1.046875 2.660156 -0.71875 2.640625 -0.5 L 5.0625 -0.59375 C 5.65625 -0.601562 6.101562 -0.753906 6.40625 -1.046875 C 6.71875 -1.335938 6.867188 -1.847656 6.859375 -2.578125 L 7.296875 -2.59375 L 7.25 -0.109375 L 0.703125 -0.015625 Z M 5.375 -10.859375 C 5.644531 -11.046875 5.773438 -11.238281 5.765625 -11.4375 C 5.765625 -11.550781 5.738281 -11.632812 5.6875 -11.6875 C 5.664062 -11.71875 5.625 -11.753906 5.5625 -11.796875 C 5.5 -11.835938 5.425781 -11.859375 5.34375 -11.859375 C 5.1875 -11.859375 5.019531 -11.78125 4.84375 -11.625 L 3.28125 -10.0625 L 3.546875 -9.703125 Z M 5.375 -10.859375 "/></g></g></g><g fill="#171810" fill-opacity="1"><g transform="translate(198.302392, 115.399757)"><g><path d="M 0.25 -0.375 C 0.5 -0.363281 0.734375 -0.398438 0.953125 -0.484375 C 1.171875 -0.566406 1.363281 -0.679688 1.53125 -0.828125 C 1.707031 -0.972656 1.957031 -1.1875 2.28125 -1.46875 L 4.421875 -3.40625 C 4.285156 -3.75 4.160156 -4.050781 4.046875 -4.3125 C 3.941406 -4.570312 3.84375 -4.804688 3.75 -5.015625 C 3.300781 -6.046875 3.019531 -6.722656 2.90625 -7.046875 C 2.800781 -7.367188 2.722656 -7.671875 2.671875 -7.953125 L 1.984375 -8.078125 L 2.109375 -8.625 L 5.3125 -7.890625 L 5.21875 -7.484375 L 4.671875 -7.59375 C 4.273438 -7.675781 4.050781 -7.613281 4 -7.40625 C 3.976562 -7.320312 3.984375 -7.222656 4.015625 -7.109375 C 4.046875 -6.992188 4.09375 -6.84375 4.15625 -6.65625 C 4.289062 -6.25 4.628906 -5.394531 5.171875 -4.09375 L 6.765625 -5.53125 C 7.046875 -5.78125 7.320312 -6.019531 7.59375 -6.25 C 7.863281 -6.476562 8.066406 -6.632812 8.203125 -6.71875 L 7.140625 -6.890625 L 7.265625 -7.4375 L 9.71875 -6.875 L 9.625 -6.46875 C 9.257812 -6.5 8.894531 -6.398438 8.53125 -6.171875 C 8.164062 -5.953125 7.75 -5.628906 7.28125 -5.203125 L 5.421875 -3.53125 L 6.65625 -0.765625 L 6.9375 -0.15625 L 7.53125 1.1875 L 8.234375 1.328125 L 8.109375 1.875 L 5.078125 1.171875 L 5.171875 0.765625 C 5.660156 0.910156 5.9375 0.84375 6 0.5625 C 6.039062 0.414062 6.007812 0.222656 5.90625 -0.015625 L 5.609375 -0.640625 C 5.265625 -1.359375 4.945312 -2.09375 4.65625 -2.84375 C 4.101562 -2.332031 3.550781 -1.816406 3 -1.296875 C 2.945312 -1.242188 2.78125 -1.085938 2.5 -0.828125 C 2.226562 -0.578125 1.945312 -0.34375 1.65625 -0.125 L 2.703125 0.046875 L 2.578125 0.59375 L 0.15625 0.03125 Z M 0.25 -0.375 "/></g></g></g><g fill="#171810" fill-opacity="1"><g transform="translate(214.482702, 120.325778)"><g><path d="M 0.828125 -0.078125 C 1.085938 0.0351562 1.300781 0.0625 1.46875 0 C 1.644531 -0.0507812 1.773438 -0.148438 1.859375 -0.296875 C 1.953125 -0.453125 2.09375 -0.726562 2.28125 -1.125 L 4.625 -6.078125 C 4.78125 -6.390625 4.925781 -6.660156 5.0625 -6.890625 L 4.21875 -7.21875 L 4.453125 -7.734375 L 7.03125 -6.5 L 6.859375 -6.109375 C 6.578125 -6.242188 6.351562 -6.28125 6.1875 -6.21875 C 6.019531 -6.15625 5.890625 -6.046875 5.796875 -5.890625 C 5.710938 -5.742188 5.578125 -5.472656 5.390625 -5.078125 L 3.078125 -0.21875 C 2.878906 0.1875 2.722656 0.484375 2.609375 0.671875 L 3.453125 1.015625 L 3.21875 1.53125 L 0.640625 0.296875 Z M 0.828125 -0.078125 "/></g></g></g><g fill="#171810" fill-opacity="1"><g transform="translate(225.849348, 126.509453)"><g><path d="M 3.734375 3.1875 C 3.078125 2.664062 2.613281 2.046875 2.34375 1.328125 C 2.070312 0.617188 2 -0.113281 2.125 -0.875 C 2.257812 -1.644531 2.585938 -2.363281 3.109375 -3.03125 C 3.617188 -3.675781 4.226562 -4.179688 4.9375 -4.546875 C 5.65625 -4.921875 6.414062 -5.082031 7.21875 -5.03125 C 8.019531 -4.976562 8.796875 -4.660156 9.546875 -4.078125 C 10.273438 -3.503906 10.789062 -2.769531 11.09375 -1.875 L 11.453125 -2.453125 L 11.984375 -2.03125 L 10.171875 0.28125 L 9.8125 0 C 10.226562 -0.664062 10.390625 -1.320312 10.296875 -1.96875 C 10.210938 -2.613281 9.878906 -3.160156 9.296875 -3.609375 C 8.816406 -3.984375 8.273438 -4.191406 7.671875 -4.234375 C 7.078125 -4.285156 6.476562 -4.15625 5.875 -3.84375 C 5.269531 -3.53125 4.71875 -3.054688 4.21875 -2.421875 C 3.726562 -1.804688 3.414062 -1.160156 3.28125 -0.484375 C 3.144531 0.191406 3.171875 0.820312 3.359375 1.40625 C 3.554688 2 3.90625 2.488281 4.40625 2.875 C 4.84375 3.21875 5.347656 3.453125 5.921875 3.578125 C 6.492188 3.703125 7.0625 3.6875 7.625 3.53125 L 7.703125 3.953125 C 6.898438 4.191406 6.160156 4.21875 5.484375 4.03125 C 4.816406 3.851562 4.234375 3.570312 3.734375 3.1875 Z M 3.734375 3.1875 "/></g></g></g><g fill="#171810" fill-opacity="1"><g transform="translate(238.849802, 138.122311)"><g><path d="M 0.28125 -0.328125 C 0.40625 -0.160156 0.546875 -0.0507812 0.703125 0 C 0.867188 0.0390625 1.035156 0.0390625 1.203125 0 C 1.378906 -0.0390625 1.625 -0.109375 1.9375 -0.203125 L 2.28125 -0.3125 L 9.53125 -2.625 L 9.71875 -2.375 L 5.734375 4.28125 C 5.609375 4.5 5.460938 4.71875 5.296875 4.9375 C 5.128906 5.15625 4.976562 5.3125 4.84375 5.40625 L 5.40625 6.0625 L 4.96875 6.40625 L 3.1875 4.109375 L 3.515625 3.84375 C 3.828125 4.226562 4.140625 4.300781 4.453125 4.0625 C 4.578125 3.957031 4.707031 3.800781 4.84375 3.59375 L 5.515625 2.53125 L 3.4375 -0.046875 C 3.082031 0.0664062 2.632812 0.222656 2.09375 0.421875 C 1.820312 0.535156 1.523438 0.632812 1.203125 0.71875 L 1.84375 1.46875 L 1.40625 1.8125 L -0.046875 -0.0625 Z M 5.796875 2.09375 L 7.140625 -0.109375 L 8.03125 -1.53125 L 8.015625 -1.546875 L 6.5625 -1.078125 L 4.609375 -0.421875 L 4 -0.21875 Z M 5.796875 2.09375 "/></g></g></g><g fill="#171810" fill-opacity="1"><g transform="translate(248.174683, 151.725321)"><g><path d="M 7.453125 -0.890625 L 7.453125 -0.90625 L 2.484375 1.28125 C 1.960938 1.507812 1.570312 1.671875 1.3125 1.765625 L 1.71875 2.578125 L 1.203125 2.796875 L 0.28125 0.65625 L 0.671875 0.484375 C 0.804688 0.804688 0.984375 0.976562 1.203125 1 C 1.429688 1.03125 1.675781 0.988281 1.9375 0.875 L 8.328125 -1.875 L 7.921875 -2.640625 L 8.4375 -2.875 L 9.046875 -1.484375 L 4.546875 6.359375 L 4.546875 6.375 L 9.90625 4.078125 C 10.226562 3.941406 10.507812 3.832031 10.75 3.75 L 10.328125 2.9375 L 10.84375 2.703125 L 11.78125 4.859375 L 11.40625 5.03125 C 11.289062 4.800781 11.164062 4.644531 11.03125 4.5625 C 10.90625 4.488281 10.765625 4.46875 10.609375 4.5 C 10.453125 4.53125 10.257812 4.59375 10.03125 4.6875 L 9.625 4.875 L 3.078125 7.65625 L 2.84375 7.09375 Z M 7.453125 -0.890625 "/></g></g></g><g fill="#171810" fill-opacity="1"><g transform="translate(254.342846, 168.801128)"><g><path d="M 0.515625 5.09375 C 0.367188 4.082031 0.46875 3.207031 0.8125 2.46875 C 1.164062 1.738281 1.671875 1.164062 2.328125 0.75 C 2.984375 0.332031 3.703125 0.0664062 4.484375 -0.046875 C 5.222656 -0.148438 5.96875 -0.0859375 6.71875 0.140625 C 7.46875 0.378906 8.117188 0.789062 8.671875 1.375 C 9.222656 1.96875 9.566406 2.734375 9.703125 3.671875 C 9.835938 4.640625 9.722656 5.492188 9.359375 6.234375 C 9.003906 6.984375 8.5 7.570312 7.84375 8 C 7.1875 8.4375 6.488281 8.707031 5.75 8.8125 C 5.007812 8.914062 4.257812 8.851562 3.5 8.625 C 2.75 8.394531 2.097656 7.984375 1.546875 7.390625 C 0.992188 6.796875 0.648438 6.03125 0.515625 5.09375 Z M 1.03125 5.03125 C 1.125 5.6875 1.390625 6.21875 1.828125 6.625 C 2.273438 7.039062 2.804688 7.328125 3.421875 7.484375 C 4.046875 7.640625 4.675781 7.671875 5.3125 7.578125 C 6.03125 7.472656 6.703125 7.242188 7.328125 6.890625 C 7.953125 6.535156 8.445312 6.078125 8.8125 5.515625 C 9.175781 4.960938 9.3125 4.359375 9.21875 3.703125 C 9.125 3.035156 8.851562 2.492188 8.40625 2.078125 C 7.957031 1.671875 7.414062 1.390625 6.78125 1.234375 C 6.15625 1.085938 5.519531 1.0625 4.875 1.15625 C 4.21875 1.25 3.570312 1.460938 2.9375 1.796875 C 2.3125 2.128906 1.8125 2.570312 1.4375 3.125 C 1.070312 3.6875 0.9375 4.320312 1.03125 5.03125 Z M 1.03125 5.03125 "/></g></g></g></svg>